<?xml version="1.0" encoding="UTF-8"?>
<svg id="Layer_1" xmlns="http://www.w3.org/2000/svg" version="1.1" viewBox="0 0 675 675">
  <!-- Generator: Adobe Illustrator 29.4.0, SVG Export Plug-In . SVG Version: 2.1.0 Build 152)  -->
  <path d="M156.1,571.8c-19.4-17.3-37.7-35.9-53-57.1-69.1-95.8-75.7-223.5-16.3-325.9,30.1-51.8,75.5-94.3,130.1-119.2l-9-32.1,76.2,19.2-51.4,61.9-10.4-30.7c-54.7,26.6-98.8,70.4-126.6,124.4-46.5,90.5-38.6,202.4,19.2,285.7l38.5.3c-.2-5,1-11,2.9-15.6,3.4-8.2,8.6-9.3,8.2-19.7-.8-25.4-12.7-47.2-3.5-72.7,1.2-3.3,5-9.2,5.5-11.3,1.3-6.4,0-11,3.3-17.7,1.2-2.4,4.6-6,5.1-8.2,1-4.6-1.3-12.3-1.3-17.3.1-13,6.2-26.3,14.1-36.3,1.3-1.6,5.7-5,6.1-6.5.7-2.5-.1-6.8.2-9.6,3.1-30.4,33.7-53.7,63.8-46.6,10-10.6,23.3-16.8,37.4-20.3.2-2,.3-4.1,1.4-6s2.8-2.3,3-2.8c.9-3.8-.1-11.2,1-16.3,7.7-35.2,62.7-36.7,72.6-4.7s1,12.2,2.1,18.2,2.5,3.9,3.5,6.3.7,4.6,1.4,5.2,6.8,1.6,8.6,2.2c11.1,4,20.7,9.5,28.8,18.1,8.9-1.7,16.5-2,25.2.6,21.3,6.3,36.2,24.7,38.6,46.7.3,2.7-.5,6.6.2,8.9s5.5,5.4,6.8,7.2c6.8,8.5,12.8,22.6,13.3,33.5s-2.2,14.4-1.4,18.9,5.4,7.9,6.6,11.6c1.6,5,.9,10.2,1.9,14.9s4.6,8.9,6,12.9c7,20.8.3,35.2-2.5,55.2-.7,5.2-2.1,15.3-1.5,20.2.6,4.8,6.3,10.7,8.2,15.5,1.9,4.7,3.2,10.5,3,15.6h21.7l-12.6,16.4c-4.7,1.1-10.3-.3-15,.4s-7.1,2.9-10.2,3.8c-12.6,3.6-28,4-39.5-3.2-84.5-1.6-169.3-.2-253.9-.7-12.7,5.6-20.6,7.2-34.8,5.4s-16.1-5.4-17-5.4h-32.5c.5,1.8,2.3,3.7,3.5,5.2,9.7,12.2,22.6,24.6,34.6,34.6,43.2,35.8,97.3,58.4,153.5,63v18.2c-48.4-2-96.3-19.3-136.7-45.5H10.6l59.1-102.1,10.5,18.9-36.7,64.3h112.6ZM315.2,199.8c-1.5.4-4.2,7.2-4.4,8.9-.4,2.5.6,5.9.2,7.2-.6,2.2-4.1,2.6-4.3,5.2-.5,5.5,4.2,8.9,5.6,13s1.5,8.5,3,12.4,10.2,13.7,13.6,15.7c7.7,4.6,14.7,2.7,20.8-3.3s7.9-8.5,9-10.6c2.2-4.6,2.2-10.5,4-14.9s4.2-5.5,4.9-9.8c1-5.6-2.9-4.6-3.7-7.5s.4-6.3-.7-9.8-3-6.2-4.1-6.4c-4,1.9-6.7,4.6-11.1,6.2-13,4.9-21.9.8-32.8-6.3ZM296.6,228.4c-14.2,4.2-27,10.3-35.6,22.7,3.5,1.7,7.3,2,11,3.7,6.6,3.1,11.2,8.8,12.8,15.9,18.3-2,42,2.8,51.8,19.9,1,.2,1.1-.1,1.8-.7,2.6-2.3,4.9-6.2,8.1-8.7,11.6-9.1,29.7-12.6,44-10.2,1.9-11.4,12.9-18.2,23.8-18.9.7-.6-5.8-8.2-6.6-9.1-7.6-7.5-18.6-11.5-28.6-14.6-2.6,6.2-7.8,10-7.5,17.1s9.6,15.9,8.5,17.1c-4.8-1-8-5.5-10.8-9.1-7.4,7.2-14.7,20.5-25.9,21.7-3.2.3-9.3.3-12.4-.2-9.3-1.4-19.9-15.4-25-22.9l-5.6,8.1-6.3,3.1c3.9-8,11.8-14.7,8-24.5s-5.1-6.4-5.2-10.5ZM240.7,266.2c-.5-5.6,14.3-13.4,13.3-17.1s-14.2-.7-16.8,0c-24.7,6.1-38.4,33.9-27.3,57,.9.2,1.1-1.3,1.2-1.9,1.1-6.1.9-9.6,4.2-15.3s7.4-9.9,8.5-8.6c-5.1,11-7.8,25-1.4,36,11.9,0,23.4-3.4,33.1-10.3s7.3-7,11.7-9.7l-3.5,10.5,11.9-1.7c-1.4,4.6-11.2,8-13,10.9s4.4,10.5,6,12.2,7.6,6.7,8.4,5.9c.3-4.8,4.5-5,7.9-2.7s-1.1,5.7-.2,6.9c12.4,4,28.8,4.4,40.1-2.9s7.3-18.8-5.8-21.6c2.5-2.6,9.4-1.7,12.4,0,2.4-.2.9-1.7.9-3,0-9.8-.5-14.5-8.4-20.9-11.4-9.2-31.3-12.3-45.4-9.5,1.8-4.5,1.7-6.4-1.1-10.4-6.4-9.1-18.8-10.1-28.6-7.1-2.8.9-5.3,2.5-8,3.5ZM464.4,306.1c1,0,1.1-1,1.4-1.7,11.8-25.5-10.3-57.9-38-57-1.4,0-7.9,1-7.4,3s15.9,10.7,14.6,16.5c-10.7-7.8-30.8-8.5-38.2,4.1-2.9,5-1,4.5.4,9.2-15.9-4.5-51,3.1-54.5,22.1s-.9,9.4-.7,10.3c.7,2.4,2.9,0,4.5-.2s5-.2,7,0,3.1.2,3.1,1.4c-21.2,5.1-16.2,19.6,1.7,25.2,10.6,3.3,21.4,2.7,31.8-.7.7-2-1.6-1.2-2-2.5-1.9-5.5,9.1-8.9,9.7-1.7,7.3-2.2,12.1-10.2,14.5-17.3l-13.9-12.5,11.2,2.4-2.1-11.2c10.6,10.7,21,17.8,36.2,20.1,4.8.7,8.4,2.2,10.3-2.6,4.2-11.1.7-22.3-3.1-32.8,1.4-1.5,8.2,8.7,8.7,9.8,2.8,5.1,4.1,10.2,4.5,16.1ZM205,491c.9,3.2-.6,10,0,13.6,7-.7,6.3-11.9,4.5-16.8s-16.1-14.3-16.3-17.3c.2-1.5,1.7-1.8,2-3.4.9-4.6-.4-12.4,0-17.5s2.3-12.5,5.3-17.8c2.8-1.8.3.8.3,1v10.1c1.7.4,1.1-.3,1.6-.9,10.5-15.3,17.7-26,15.1-45.5s-.4-4.7-2-5.3c-1,5.6-3.3,12.2-6.6,16.9s0,1.7-1.8,1.3c4.8-14.9-.6-29.3-2.8-44,5.6,2.8,8.9,8.1,12.2,13.1,17.4-5.7,27.5-19.4,31.5-36.9,1.4-6.1,2.9-13.7.7-19.6-4.9,1.2-9.9,2.5-14.8,3.3s-4.5,0-6.7.3c-11.4,1.6-16.2,18.3-20.2,27.4s0,2.3-1.5,1.9c-1.9-.5,2.2-19.2,2.9-21.5s4.1-7.5,3.4-9.2c-4.9-5.4-10-10.9-13.3-17.5-12.2,11.4-13.9,27.5-11.5,43.3.8.9,6.7-5.9,6.3-2.5-1.2,9.8-12.9,15.4-13.9,23.2-1.5,11,3.9,15.1,7.3,24.1s.6,9.8.4,16.4.5,14.7,1.4,22l-3.6-4.4c-2-4.6-3.5-9.4-4.6-14.3-1.5-7.3-.8-17.1-6.5-22.5-8.6,17.5-.8,34.6,1.3,52.2.8,6.9.7,13.8.9,20.7l5.4,5.7c-9.2,3.9-22.2,24.5-16.1,33.6s4.6,2.1,7.2,2.6,1.7,1.2,2.8,1.4c5,1.2,7.7,2.5,11.4-2.3h1c.6,2.5,2.9,5.6,5.8,4.8,4.3-1.2,1.1-8.1,1.2-11.4s2.6-13.2,8.4-10.5c.3.2,2.1,1.9,2.1,2.1ZM474.2,443.8v-11.9c1.1.5,2,3.1,2.4,4.2,4.8,12.1,1.2,20.6,3.2,31.1s2.2,2.9,2,4.1c-.4,2-11,9.6-13.2,12-5.2,5.7-6.6,16.6-.3,22l1.7-1v-13.3c0-1.6,4.6-3.3,7-1.4,6.4,5.2,1.2,17.7,3.5,20.2,3.5,3.3,6-2.4,8-2.5s2.8,2,5.6,2.2c4,.2,6-2,8.7-2.6s4.2,1.3,7-2.8c5-7-2.9-21.4-7.7-27.3s-7-5.9-7-7c.4-2.2,3.1-2.7,3.5-4.9,1.3-6.8.6-15.1,1.5-22.3s4.2-16.8,4.8-25.3-.2-17.2-3.5-25.5c-1.6-.4-1.1.2-1.6.9-5.6,8.6-4.3,26.2-10.5,37.8-.6,1-1.1,3-2.7,2.6,1.2-7.1,1.8-14.8,1.4-22s-1.8-8-1.3-11.8,5.5-11.6,7.3-16.5c5.7-15.2-1.9-17.3-8.7-28.3-1.6-2.5-3-5-4.2-7.7,2-1,4.2,1.6,5.6,2.8l1.3-.8c.2-5.6,1.2-11.1.8-16.7-.7-9.5-5.8-18.8-12.3-25.5-2.1,3.8-4.6,7.4-7.4,10.8s-5.7,5.6-5.9,6c-1.1,2.3,2.6,7.7,3.5,10.5,2.2,6.7,3.2,14.7,3.2,21.6-1.1-.2-1.3-1.3-1.7-2.1-3.1-6-5.2-13.2-8.9-19.1-7-11.1-11.1-7.8-22.4-9.8s-7.4-2.5-10-2.6-.8.2-1,1.1c-3.1,11.6,3.3,31,10.6,40.4,5.6,7.3,13.5,11.7,21.8,15.1,3.5-5,6.3-10.8,12.3-13.2-2.3,15.1-7.6,29.5-2.8,44.8-4.7-4.9-6.8-12.4-8.4-18.9-1.7.7-1.6,3.2-1.9,4.8-1.2,6.2-1.4,12.9.1,19s10.7,22.4,14.5,27.5.7,1.4,2,1.2ZM372.1,352.2c-13.1-.3-25.3-4.8-35.3-13.1-8.9,9.4-22.1,12.5-34.6,13.5,2.5,7.3,11.1,8.5,17.9,8.1s13.3-2.3,16.3-9.4l1.4-.4c3.7,12.1,30.9,14.2,34.3,1.4ZM299.4,352.2c-12.3-.8-23.5-4.4-33.2-11.9-.5-.2-.5.6-.3,1,.7,1.7,5,7.6,6.4,9,6.2,6.3,17.9,8.4,20.2,17.9l-7-2.8c.6,10.7,10.9,15.8,19.6,19.6-2.6-5.1-3.5-11.1-3.5-16.8,7.7,4.7,13.2,9,22.7,8.4,6.5-.4,11.3-2.6,10.9-10-.6-2.5-12.6.8-15.1.9-10.6.7-24.5-1.4-20.6-15.4ZM386.4,361.5c6.9-6.9,15.3-6.7,21.3-17.5s2.1-2.7,1.2-3.7c-9.7,7.6-20.9,11.3-33.2,11.9,3.7,13.6-9.4,15.9-20,15.4-3.3-.2-16.1-4.2-16.3.1-.3,8.3,11.5,9.7,17.6,8.9,6.3-.8,11.4-6.1,17.2-8.3-.6,3.7-1.1,7.4-1.9,11.1s-2.9,6.6-.6,5.7,9.8-6,11.5-7.4c4.4-3.6,5-6.4,7.1-11.5l-7.7,2.8c-.9-1.1,2.8-6.5,3.7-7.4ZM221.8,487.5c.5,3.2-.4,7.5,0,10.8h68.5c0-3.2.4-6.6,1.2-9.7s4.4-10.8,4.4-12.3c0-3.4-11-12.2-13.4-18.1s-1-10-2.3-14.5-4.8-7.2-6.2-9.8c-6.2-11.8-8.1-25.3-5.7-38.4,1.5-8.1,8.6-21.3,5.8-28.8-1.9-5.2-13-10.1-15.5-15.9-5.8,15.2-14,29-29.6,35.8,1.8,16.5,3.2,29.3-4.9,44.4s-11,14.7-13.1,21.9-2.8,13.9-2.3,15.6c4.5,5.2,12,11.8,13.2,19ZM453.3,498.4v-10.1c0-2.4,2.8-7.6,4.3-9.7,3.3-4.5,9.3-6.9,9-12.7-1.2-20.7-14.2-26.9-19.5-44.1s-2.1-23-.7-34.8c-14.5-7.4-24.8-20.4-28.7-36.2-1-.2-.9-.1-1.5.4-2.5,2.6-4.7,5.4-7.3,8s-7,4.7-7.9,8.9c-1.6,7.7,3.6,16.9,5.1,24.6,3,15.1,1.9,28.5-5.6,42-1.2,2.2-5.2,6.8-5.6,8.3-1.5,4.8-.1,10.7-2.6,16.3-2.2,4.9-13.3,13.6-13.1,16.9s3.5,9.5,4.3,12.6,1.5,6.3,1.3,9.5h68.5ZM333.7,382.3c-5.3-.2-10.5,1.3-15.7.7s-4.3-1.6-6.3-2.1,1,4.5,1.8,5.2c7.4,7.1,35.1,6.7,44.1,2.8,3.1-1.4,6.8-4.2,6.3-8-6.5,3.7-14.2,1.6-21.2,1.5-2.1.7-.5,7-5,7-3.5,0-4.2-4.2-3.8-7.1ZM287.5,417.2c1.2.2,1.2,1.4,1.6,2.3,3.2,7.3,5.6,18.9,11.4,24.3s8.4,4.6,14.5,0,9.7-10.2,9.9-16.6c-10.9-15.1-28.1-21.9-43.5-31.4-1.2-.4-.8,0-1.1.8-1.5,3.7-1.6,12.1-1.2,16.3.7,7.3,5.1,16.8,9.6,22.5.7.8.8,1.9,2.2,1.6-1.6-6.4-3.7-12.9-3.5-19.6ZM385.4,436.8c8.8-12.2,13.4-26.3,9.1-41.2-9.7,5.6-20.9,10.8-30,17.2-3.2,2.3-13.2,11.3-13.9,14.8-1.3,6.1,9.8,19.1,15.7,19.7,11.2,1.3,16.6-20.9,19.7-28.5s-.4-1.9,1.6-1.5c1,6.3-2.8,13-3.5,18.6s.2,1.1,1.4,1ZM345.6,498.4c0-3-.8-5.6-.7-8.7.1-5.2,3.7-14.6,3.5-18.2s-4.9-9-5.5-14.1.9-8.2,1.3-12.6-3.9-9.7-5.4-11.9-.7-1.8-1.9-1.6c-1.4,4.4-6.2,8.9-5.9,13.5.5,6.4,2.3,8.3.3,15.8s-4.4,8.8-4.5,10.9,2.5,9.7,2.8,13.3-.2,9.2,0,13.6h16.1ZM302.2,497.7h15c.3,0,1.1-.7,1.6-.8.5-.8-1.1-14-1.5-16.1-.6-3.5-2.8-7.1-2.6-10.6.3-6.9,7.2-11.4,6.3-18.6-4,1.5-7.2,4.5-11.5,4.9-9.5.9-9.9-3.7-15.4-4.9s-.7.6-.5,1.2c2,8.7,14.1,15.5,14.8,20.2.9,6-8.5,17.6-6.3,24.8ZM357.8,497.7h14c1.4,0,1-3.5.9-4.4-.5-4.6-7-17.5-6.7-19.6.9-6,15.8-14.3,15.3-22.2-3.1.7-5.5,3.3-8.7,4.2-7.4,2.1-12.1-.6-18.2-4.2-1.4,7.3,5.8,12.1,5.9,19.3s-2,6.3-2.5,9.2-2,13.7-1.4,15.8,1.2,1.8,1.6,1.9Z"/>
  <path d="M664.4,590.7h-144.8l22.7-18.9h89.2l-45.1-78.3c-38.4,65.6-102.4,114.2-175.8,134.3l4.1,30.7-71.3-31.1,58.4-52.1,5.3,32.8c1.4,1.2,25.1-7.3,28.6-8.7,117.9-46.8,189.3-172.6,171.9-298.5-16.2-117-106.9-215.1-223.9-235.5l-11.7-19.1c-.6-1.6,2.2-1.1,3.1-1,24.9,1.4,57.2,12,79.9,22.2,139,63.2,208.8,225.2,157.6,370.4-4.3,12.3-10.2,24-14.6,36.2l66.3,116.6Z"/>
  <path d="M458.1,229.1c-5.1-2.1-10.2-4.2-15.6-5.8s-10.6-1.8-11.8-2.9l-92.6-164-2.3,1.9-90.7,161c-2.5,3.1-8.6,2.9-12.7,4.1s-10.2,3.3-14.8,5.8L337.2,16.6l121,212.6Z"/>
  <path d="M514.1,329.8l62.1,107.5c0,1-7.3,17.6-8.4,19.3s-.6,1.5-1.9,1.2c-4.7-10.3-11.2-19.8-16.9-29.6-5.3-9.1-26.6-43.6-27.8-51.2s0-11.9-3.4-19.7-3.8-5.4-4.2-7.7.6-2.7.6-3.3v-16.4Z"/>
  <path d="M161,345.6c0,.3.7,1.2.8,2.1.1,3.3-4.6,9.1-5.8,13.1-2.8,9-1.1,18.4-6.4,27.1l-40.2,70.6c-.9.7-9.8-19.6-10.2-21.3l62-106.6c0,5-.1,10,0,15Z"/>
</svg>